<?xml version="1.0" encoding="UTF-8"?>
<svg width="70px" height="58px" viewBox="0 0 70 58" version="1.1" xmlns="http://www.w3.org/2000/svg" xmlns:xlink="http://www.w3.org/1999/xlink">
    <!-- Generator: Sketch 53.2 (72643) - https://sketchapp.com -->
    <title>icondescargarapp</title>
    <desc>Created with Sketch.</desc>
    <defs>
        <polygon id="path-1" points="0.000114945652 0.767655569 34.7534348 0.767655569 34.7534348 46.8667497 0.000114945652 46.8667497"></polygon>
        <path d="M0.425112617,0 C0.19002534,0 0,0.171405407 0,0.382601355 L0,0.382601355 C0,0.594179905 0.19002534,0.765202711 0.425112617,0.765202711 L0.425112617,0.765202711 L7.22691449,0.765202711 C7.46200177,0.765202711 7.65202711,0.594179905 7.65202711,0.382601355 L7.65202711,0.382601355 C7.65202711,0.171405407 7.46200177,0 7.22691449,0 L7.22691449,0 L0.425112617,0 Z" id="path-3"></path>
        <path d="M0.425112617,0 C0.19002534,0 0,0.171022806 0,0.382601355 L0,0.382601355 C0,0.593797304 0.19002534,0.765202711 0.425112617,0.765202711 L0.425112617,0.765202711 L7.22691449,0.765202711 C7.46200177,0.765202711 7.65202711,0.593797304 7.65202711,0.382601355 L7.65202711,0.382601355 C7.65202711,0.171022806 7.46200177,0 7.22691449,0 L7.22691449,0 L0.425112617,0 Z" id="path-5"></path>
        <path d="M0.425112617,0 C0.19002534,0 0,0.171022806 0,0.382601355 L0,0.382601355 C0,0.594179905 0.19002534,0.765202711 0.425112617,0.765202711 L0.425112617,0.765202711 L7.22691449,0.765202711 C7.46200177,0.765202711 7.65202711,0.594179905 7.65202711,0.382601355 L7.65202711,0.382601355 C7.65202711,0.171022806 7.46200177,0 7.22691449,0 L7.22691449,0 L0.425112617,0 Z" id="path-7"></path>
        <path d="M0.437258692,0 C0.195454635,0 0,0.171405407 0,0.382601355 L0,0.382601355 C0,0.594179905 0.195454635,0.765202711 0.437258692,0.765202711 L0.437258692,0.765202711 L14.8667955,0.765202711 C15.1085996,0.765202711 15.3040542,0.594179905 15.3040542,0.382601355 L15.3040542,0.382601355 C15.3040542,0.171405407 15.1085996,0 14.8667955,0 L14.8667955,0 L0.437258692,0 Z" id="path-9"></path>
        <path d="M0.450119242,0 C0.201203301,0 0,0.171022806 0,0.382601355 L0,0.382601355 C0,0.593797304 0.201203301,0.765202711 0.450119242,0.765202711 L0.450119242,0.765202711 L7.20190787,0.765202711 C7.45082381,0.765202711 7.65202711,0.593797304 7.65202711,0.382601355 L7.65202711,0.382601355 C7.65202711,0.171022806 7.45082381,0 7.20190787,0 L7.20190787,0 L0.450119242,0 Z" id="path-11"></path>
        <path d="M0.450119242,0 C0.201203301,0 0,0.171022806 0,0.382601355 L0,0.382601355 C0,0.594179905 0.201203301,0.765202711 0.450119242,0.765202711 L0.450119242,0.765202711 L7.20190787,0.765202711 C7.45082381,0.765202711 7.65202711,0.594179905 7.65202711,0.382601355 L7.65202711,0.382601355 C7.65202711,0.171022806 7.45082381,0 7.20190787,0 L7.20190787,0 L0.450119242,0 Z" id="path-13"></path>
        <path d="M0.450119242,0 C0.201203301,0 0,0.171405407 0,0.382601355 L0,0.382601355 C0,0.594179905 0.201203301,0.765202711 0.450119242,0.765202711 L0.450119242,0.765202711 L7.20190787,0.765202711 C7.45082381,0.765202711 7.65202711,0.594179905 7.65202711,0.382601355 L7.65202711,0.382601355 C7.65202711,0.171405407 7.45082381,0 7.20190787,0 L7.20190787,0 L0.450119242,0 Z" id="path-15"></path>
        <path d="M0,6.12162169 L6.12118443,6.12162169 L6.12118443,0 L0,0 L0,6.12162169 Z M0.874517384,5.24754156 L5.2471043,5.24754156 L5.2471043,0.874517384 L0.874517384,0.874517384 L0.874517384,5.24754156 Z" id="path-17"></path>
        <path d="M4.22180806,0 L4.22180806,12.6258447 L0,12.6258447 L0,22.7265205 C0,24.1191512 1.13608855,25.2516895 2.53308484,25.2516895 L2.53308484,25.2516895 L21.9534019,25.2516895 C23.3478651,25.2516895 24.4822649,24.1199929 24.4822649,22.7307291 L24.4822649,22.7307291 L24.4822649,5.49140073 C24.4826871,5.48424609 24.4864868,5.47835403 24.4864868,5.47119938 L24.4864868,5.47119938 C24.4864868,5.4644656 24.4826871,5.45815268 24.4822649,5.45099803 L24.4822649,5.45099803 L24.4822649,0 L4.22180806,0 Z M5.06616967,5.05033789 L23.6379033,5.05033789 L23.6379033,0.841722982 L5.06616967,0.841722982 L5.06616967,5.05033789 Z M4.43796463,24.3859774 C4.52366734,24.2879166 4.60219297,24.1831221 4.67227498,24.0724356 L4.67227498,24.0724356 C4.68367386,24.0547594 4.69422838,24.0370832 4.70520508,24.0185653 L4.70520508,24.0185653 C4.77359837,23.9049327 4.83397023,23.7862497 4.88378756,23.6612539 L4.88378756,23.6612539 C4.89054246,23.6444194 4.89645299,23.6267432 4.9027857,23.6099088 L4.9027857,23.6099088 C4.95133649,23.4811252 4.99102149,23.3477121 5.01804106,23.2105112 L5.01804106,23.2105112 C5.02057415,23.1978854 5.02141851,23.1848387 5.02395159,23.1722128 L5.02395159,23.1722128 C5.04970462,23.0278573 5.06616967,22.8788724 5.06616967,22.7265205 L5.06616967,22.7265205 L5.06616967,12.6258447 L5.06616967,5.89206087 L23.6379033,5.89206087 L23.6379033,22.7307291 C23.6379033,23.6566244 22.8821997,24.4099665 21.9534019,24.4099665 L21.9534019,24.4099665 L4.41981086,24.4099665 C4.42656575,24.4028118 4.43120974,24.3935529 4.43796463,24.3859774 L4.43796463,24.3859774 Z M0.844361612,22.7265205 L0.844361612,13.4675677 L4.22180806,13.4675677 L4.22180806,22.7265205 C4.22180806,23.654941 3.46441569,24.4099665 2.53308484,24.4099665 L2.53308484,24.4099665 C1.60175398,24.4099665 0.844361612,23.654941 0.844361612,22.7265205 L0.844361612,22.7265205 Z" id="path-19"></path>
        <path d="M0,2.29560813 L9.94763524,2.29560813 L9.94763524,0 L0,0 L0,2.29560813 Z M0.828969604,1.53078802 L9.11866564,1.53078802 L9.11866564,0.765202711 L0.828969604,0.765202711 L0.828969604,1.53078802 Z" id="path-21"></path>
    </defs>
    <g id="icondescargarapp" stroke="none" stroke-width="1" fill="none" fill-rule="evenodd">
        <g id="Group-3-Copy-4" transform="translate(6.000000, 10.000000)">
            <g id="Group-3" transform="translate(0.000000, 0.000000)">
                <g id="Group-10" transform="translate(24.750000, -0.000000)">
                    <path d="M22.3885135,42.4633205 C21.8257384,42.4633205 21.3677606,42.0053427 21.3677606,41.4425676 C21.3677606,40.8797925 21.8257384,40.4218147 22.3885135,40.4218147 C22.9512886,40.4218147 23.4092664,40.8797925 23.4092664,41.4425676 C23.4092664,42.0053427 22.9512886,42.4633205 22.3885135,42.4633205 M22.3885135,39.0608108 C21.0751448,39.0608108 20.0067568,40.1291988 20.0067568,41.4425676 C20.0067568,42.7559363 21.0751448,43.8243243 22.3885135,43.8243243 C23.7018822,43.8243243 24.7702703,42.7559363 24.7702703,41.4425676 C24.7702703,40.1291988 23.7012017,39.0608108 22.3885135,39.0608108" id="Fill-1" fill="#92C5FF"></path>
                    <path d="M25.722973,25.2466216 C26.5110963,25.2466216 27.152027,25.8875524 27.152027,26.6756757 C27.152027,27.463799 26.5110963,28.1047297 25.722973,28.1047297 C24.9348497,28.1047297 24.2939189,27.463799 24.2939189,26.6756757 C24.2939189,25.8875524 24.9348497,25.2466216 25.722973,25.2466216 M25.722973,29.5337838 C27.2992196,29.5337838 28.5810811,28.2519223 28.5810811,26.6756757 C28.5810811,25.0994291 27.2992196,23.8175676 25.722973,23.8175676 C24.1467264,23.8175676 22.8648649,25.0994291 22.8648649,26.6756757 C22.8648649,28.2519223 24.1460118,29.5337838 25.722973,29.5337838" id="Fill-3" fill="#92C5FF"></path>
                    <path d="M6.66903799,10.4797297 C6.9128994,10.4797297 7.15676081,10.3863707 7.34251462,10.2006053 L9.24768188,8.29531896 C9.62014208,7.92283548 9.62014208,7.320765 9.24768188,6.94828153 C8.87522168,6.57579805 8.27318882,6.57579805 7.90072863,6.94828153 L5.99556137,8.85356785 C5.62310117,9.22605133 5.62310117,9.82812181 5.99556137,10.2006053 C6.18131517,10.3863707 6.42517658,10.4797297 6.66903799,10.4797297" id="Fill-5" fill="#92C5FF"></path>
                    <g id="Group-9">
                        <mask id="mask-2" fill="white">
                            <use xlink:href="#path-1"></use>
                        </mask>
                        <g id="Clip-8"></g>
                        <path d="M32.4739859,26.9575681 C32.9598228,27.7420112 33.2211326,28.6493837 33.2211326,29.5790372 C33.2211326,31.1579114 32.4946761,32.610783 31.2272087,33.5680956 L30.9222196,33.7978199 L30.9222196,36.8779692 L22.0522467,36.8779692 L17.127975,36.8779692 L17.127975,34.7897063 L16.8574696,34.5607503 C16.8229859,34.530018 16.7862033,34.5023589 16.7195348,34.4524188 L9.91705109,27.6574973 L13.8137087,27.6574973 L21.0085402,34.8719153 C21.5012739,35.3651695 22.1472685,35.6117965 22.793263,35.6117965 C23.4400239,35.6117965 24.0867848,35.3651695 24.5787522,34.8719153 L32.4739859,26.9575681 Z M32.4548283,45.3293641 L27.8570022,45.3293641 L27.8570022,42.6971387 C27.8570022,41.0022499 27.1259478,39.4794622 25.9688283,38.4145864 L32.4548283,38.4145864 L32.4548283,45.3293641 Z M15.5961326,45.3293641 L15.5961326,38.4145864 L22.053013,38.4145864 C24.4078663,38.4145864 26.3243935,40.3361263 26.3243935,42.6971387 L26.3243935,45.3293641 L15.5961326,45.3293641 Z M8.6687413,22.3277403 L8.98675761,22.2916298 C9.01817609,22.2870199 9.04959457,22.2801052 9.08177935,22.2801052 L16.7448228,22.2801052 C17.8015565,22.2801052 18.6605837,23.1413791 18.6605837,24.2008767 C18.6605837,25.2603743 17.8015565,26.1216483 16.7448228,26.1216483 L14.448975,26.1216483 L12.2818663,26.1216483 L9.08177935,26.1216483 C8.02504565,26.1216483 7.16601848,25.2603743 7.16601848,24.2008767 C7.16678478,23.2842845 7.81124674,22.5182808 8.6687413,22.3277403 L8.6687413,22.3277403 Z M15.541725,5.4864151 L16.4444315,6.39148267 L20.2759533,10.2330258 L20.7150457,10.6732667 L24.107475,14.074569 L24.5465674,14.5148098 L27.9389967,17.9161121 L28.3780891,18.356353 L32.2096109,22.1978961 L32.929937,22.9201063 C33.3169207,23.3081021 33.3169207,23.9381152 32.929937,24.3261111 L32.595062,24.6626302 L23.4959641,33.7862952 C23.110513,34.1735228 22.4798446,34.1758277 22.0928609,33.7862952 L15.9815837,27.6582656 L16.7448228,27.6582656 C18.6460239,27.6582656 20.1931924,26.1078188 20.1931924,24.2008767 C20.1931924,22.294703 18.6460239,20.7434879 16.7448228,20.7434879 L9.08407826,20.7434879 L4.70388261,16.3518358 L15.541725,5.4864151 Z M1.82104565,13.462227 C1.43482826,13.0734628 1.43482826,12.4426815 1.82104565,12.0554539 L11.2557848,2.59526973 C11.3515728,2.49923115 11.4634533,2.42701014 11.5822304,2.37860669 C11.6358717,2.35632574 11.6964098,2.35709405 11.7531163,2.34480111 C11.8895185,2.31560538 12.024388,2.31560538 12.1607902,2.34480111 C12.2174967,2.35709405 12.2780348,2.35632574 12.3316761,2.37860669 C12.4504533,2.42701014 12.5615674,2.49923115 12.6581217,2.59526973 L14.4581707,4.4000267 L3.62109457,15.2654474 L1.82104565,13.462227 Z M19.8108065,5.37731528 C20.8675402,5.37731528 21.7265674,6.23858925 21.7265674,7.29808686 C21.7265674,7.88814789 21.4552957,8.43441532 21.0085402,8.79398376 L18.3180457,6.09645216 C18.6766761,5.64929653 19.2222848,5.37731528 19.8108065,5.37731528 L19.8108065,5.37731528 Z M25.5580891,11.13963 C25.5580891,11.729691 25.2868174,12.2759585 24.840062,12.6355269 L22.1495674,9.93799531 C22.5081978,9.49007138 23.0538065,9.21809013 23.641562,9.21809013 C24.6982957,9.21885844 25.5580891,10.0801324 25.5580891,11.13963 L25.5580891,11.13963 Z M29.3896109,14.9811732 C29.3896109,15.5712342 29.1183391,16.1175016 28.6715837,16.4770701 L25.9810891,13.7795385 C26.3397196,13.3316145 26.8853283,13.0596333 27.4730837,13.0596333 C28.5298174,13.0604016 29.3896109,13.9216756 29.3896109,14.9811732 L29.3896109,14.9811732 Z M33.2211326,18.8227163 C33.2211326,19.4127774 32.9498609,19.9590448 32.5031054,20.3186132 L29.8126109,17.6210816 C30.1712413,17.1731577 30.71685,16.9011764 31.3046054,16.9011764 C32.3613391,16.9019447 33.2211326,17.7632187 33.2211326,18.8227163 L33.2211326,18.8227163 Z M34.7537413,23.6231087 C34.7537413,22.9469971 34.4908989,22.3116058 34.0142576,21.8337179 L33.5874261,21.4057699 C34.3146489,20.761159 34.752975,19.8268957 34.752975,18.8227163 C34.752975,16.9165426 33.2058065,15.3653275 31.3046054,15.3653275 C31.165138,15.3653275 31.0272033,15.379157 30.8908011,15.3960598 C30.9076598,15.2585326 30.9214533,15.1217736 30.9214533,14.9811732 C30.9214533,13.0749995 29.3742848,11.5237843 27.4730837,11.5237843 C27.3336163,11.5237843 27.1956815,11.5376139 27.0592793,11.5545167 C27.076138,11.4169894 27.0899315,11.2802305 27.0899315,11.13963 C27.0899315,9.2334563 25.542763,7.68224117 23.641562,7.68224117 C23.5020946,7.68224117 23.3641598,7.69607073 23.2277576,7.71297352 C23.2446163,7.57544627 23.2584098,7.43868734 23.2584098,7.29808686 C23.2584098,5.39191314 21.7112413,3.84069802 19.8100402,3.84069802 C18.8077141,3.84069802 17.8774207,4.28093886 17.233725,5.00929544 L16.6252793,4.39925839 L13.7416761,1.50811301 C12.756975,0.520836421 11.1553989,0.520836421 10.1722304,1.50811301 L0.737491304,10.9675289 C-0.245677174,11.9548055 -0.245677174,13.5605705 0.737491304,14.5470788 L3.62109457,17.4382242 L7.38364891,21.2113879 C6.34454022,21.806827 5.63417609,22.917033 5.63417609,24.2008767 C5.63417609,25.4017431 6.24951848,26.4612407 7.17981196,27.0804975 C7.22655652,27.1427305 7.28096413,27.2041952 7.35376304,27.2664282 L15.5961326,35.4988552 L15.5961326,36.8787375 L14.0635239,36.8787375 L14.0635239,46.8667497 L27.8570022,46.8667497 L33.987437,46.8667497 L33.987437,36.8787375 L32.4548283,36.8787375 L32.4548283,34.5507623 C33.9207685,33.305334 34.7537413,31.5144066 34.7537413,29.5790372 C34.7537413,28.2421801 34.337638,26.9437386 33.5766978,25.851972 L34.0142576,25.4124995 C34.4908989,24.9346115 34.7537413,24.2992202 34.7537413,23.6231087 L34.7537413,23.6231087 Z" id="Fill-7" fill="#92C5FF" mask="url(#mask-2)"></path>
                    </g>
                </g>
                <g id="Group-64" transform="translate(0.000000, 22.500000)">
                    <path d="M6.8868244,13.0084461 L13.0084461,13.0084461 L13.0084461,6.8868244 L6.8868244,6.8868244 L6.8868244,13.0084461 Z M7.76134178,12.1339287 L12.1339287,12.1339287 L12.1339287,7.76134178 L7.76134178,7.76134178 L7.76134178,12.1339287 Z" id="Fill-1" fill="#92C5FF"></path>
                    <path d="M6.8868244,13.0084461 L13.0084461,13.0084461 L13.0084461,6.8868244 L6.8868244,6.8868244 L6.8868244,13.0084461 Z M7.76134178,12.1338662 L12.134366,12.1338662 L12.134366,7.76096696 L7.76134178,7.76096696 L7.76134178,12.1338662 Z" id="Fill-2" fill="#92C5FF"></path>
                    <path d="M6.8868244,13.0084461 L13.0084461,13.0084461 L13.0084461,6.8868244 L6.8868244,6.8868244 L6.8868244,13.0084461 Z M7.76134178,12.1338662 L12.134366,12.1338662 L12.134366,7.76096696 L7.76134178,7.76096696 L7.76134178,12.1338662 Z" id="Fill-3" fill="#92C5FF"></path>
                    <path d="M21.765766,6.8868244 L14.9639641,6.8868244 C14.7288768,6.8868244 14.5388515,7.0578472 14.5388515,7.26942575 C14.5388515,7.4810043 14.7288768,7.65202711 14.9639641,7.65202711 L21.765766,7.65202711 C22.0008533,7.65202711 22.1908786,7.4810043 22.1908786,7.26942575 C22.1908786,7.0578472 22.0008533,6.8868244 21.765766,6.8868244" id="Fill-4" fill="#92C5FF"></path>
                    <g id="Group-9" transform="translate(14.538852, 6.886824)">
                        <mask id="mask-4" fill="white">
                            <use xlink:href="#path-3"></use>
                        </mask>
                        <g id="Clip-7"></g>
                        <polygon id="Fill-6" fill="#92C5FF" mask="url(#mask-4)" points="-268.671174 16.8344596 330.312504 16.8344596 330.312504 -79.5810819 -268.671174 -79.5810819"></polygon>
                        <polygon id="Fill-8" fill="#92C5FF" mask="url(#mask-4)" points="-2.12556309 2.67820949 9.7775902 2.67820949 9.7775902 -1.91300678 -2.12556309 -1.91300678"></polygon>
                    </g>
                    <path d="M21.765766,9.18243253 L14.9639641,9.18243253 C14.7288768,9.18243253 14.5388515,9.35345534 14.5388515,9.56503389 C14.5388515,9.77661244 14.7288768,9.94763524 14.9639641,9.94763524 L21.765766,9.94763524 C22.0008533,9.94763524 22.1908786,9.77661244 22.1908786,9.56503389 C22.1908786,9.35345534 22.0008533,9.18243253 21.765766,9.18243253" id="Fill-10" fill="#92C5FF"></path>
                    <g id="Group-15" transform="translate(14.538852, 9.182433)">
                        <mask id="mask-6" fill="white">
                            <use xlink:href="#path-5"></use>
                        </mask>
                        <g id="Clip-13"></g>
                        <polygon id="Fill-12" fill="#92C5FF" mask="url(#mask-6)" points="-268.671174 14.5388515 330.312504 14.5388515 330.312504 -81.8766901 -268.671174 -81.8766901"></polygon>
                        <polygon id="Fill-14" fill="#92C5FF" mask="url(#mask-6)" points="-2.12556309 2.67820949 9.7775902 2.67820949 9.7775902 -1.91300678 -2.12556309 -1.91300678"></polygon>
                    </g>
                    <path d="M21.765766,12.2432434 L14.9639641,12.2432434 C14.7288768,12.2432434 14.5388515,12.4142662 14.5388515,12.6258447 C14.5388515,12.8374233 14.7288768,13.0084461 14.9639641,13.0084461 L21.765766,13.0084461 C22.0008533,13.0084461 22.1908786,12.8374233 22.1908786,12.6258447 C22.1908786,12.4142662 22.0008533,12.2432434 21.765766,12.2432434" id="Fill-16" fill="#92C5FF"></path>
                    <g id="Group-21" transform="translate(14.538852, 12.243243)">
                        <mask id="mask-8" fill="white">
                            <use xlink:href="#path-7"></use>
                        </mask>
                        <g id="Clip-19"></g>
                        <polygon id="Fill-18" fill="#92C5FF" mask="url(#mask-8)" points="-268.671174 12.2432434 330.312504 12.2432434 330.312504 -84.1722982 -268.671174 -84.1722982"></polygon>
                        <polygon id="Fill-20" fill="#92C5FF" mask="url(#mask-8)" points="-2.12556309 2.67820949 9.7775902 2.67820949 9.7775902 -1.91300678 -2.12556309 -1.91300678"></polygon>
                    </g>
                    <path d="M21.7536199,14.5388515 L7.32408309,14.5388515 C7.08227903,14.5388515 6.8868244,14.7098743 6.8868244,14.9214529 C6.8868244,15.1330314 7.08227903,15.3040542 7.32408309,15.3040542 L21.7536199,15.3040542 C21.995424,15.3040542 22.1908786,15.1330314 22.1908786,14.9214529 C22.1908786,14.7098743 21.995424,14.5388515 21.7536199,14.5388515" id="Fill-22" fill="#92C5FF"></path>
                    <g id="Group-27" transform="translate(6.886824, 14.538852)">
                        <mask id="mask-10" fill="white">
                            <use xlink:href="#path-9"></use>
                        </mask>
                        <g id="Clip-25"></g>
                        <polygon id="Fill-24" fill="#92C5FF" mask="url(#mask-10)" points="-268.914096 9.94763524 347.183401 9.94763524 347.183401 -86.4679063 -268.914096 -86.4679063"></polygon>
                        <polygon id="Fill-26" fill="#92C5FF" mask="url(#mask-10)" points="-2.18629346 2.67820949 17.4903477 2.67820949 17.4903477 -1.91300678 -2.18629346 -1.91300678"></polygon>
                    </g>
                    <path d="M14.0887323,16.8344596 L7.33694364,16.8344596 C7.0880277,16.8344596 6.8868244,17.0054824 6.8868244,17.217061 C6.8868244,17.4286395 7.0880277,17.5996624 7.33694364,17.5996624 L14.0887323,17.5996624 C14.3376482,17.5996624 14.5388515,17.4286395 14.5388515,17.217061 C14.5388515,17.0054824 14.3376482,16.8344596 14.0887323,16.8344596" id="Fill-28" fill="#92C5FF"></path>
                    <g id="Group-33" transform="translate(6.886824, 16.834460)">
                        <mask id="mask-12" fill="white">
                            <use xlink:href="#path-11"></use>
                        </mask>
                        <g id="Clip-31"></g>
                        <polygon id="Fill-30" fill="#92C5FF" mask="url(#mask-12)" points="-276.823334 7.65202711 357.394678 7.65202711 357.394678 -88.7635145 -276.823334 -88.7635145"></polygon>
                        <polygon id="Fill-32" fill="#92C5FF" mask="url(#mask-12)" points="-2.25059621 2.67820949 9.90262332 2.67820949 9.90262332 -1.91300678 -2.25059621 -1.91300678"></polygon>
                    </g>
                    <path d="M14.0887323,19.1300678 L7.33694364,19.1300678 C7.0880277,19.1300678 6.8868244,19.3010906 6.8868244,19.5126691 C6.8868244,19.7242477 7.0880277,19.8952705 7.33694364,19.8952705 L14.0887323,19.8952705 C14.3376482,19.8952705 14.5388515,19.7242477 14.5388515,19.5126691 C14.5388515,19.3010906 14.3376482,19.1300678 14.0887323,19.1300678" id="Fill-34" fill="#92C5FF"></path>
                    <g id="Group-39" transform="translate(6.886824, 19.130068)">
                        <mask id="mask-14" fill="white">
                            <use xlink:href="#path-13"></use>
                        </mask>
                        <g id="Clip-37"></g>
                        <polygon id="Fill-36" fill="#92C5FF" mask="url(#mask-14)" points="-276.823334 5.35641898 357.394678 5.35641898 357.394678 -91.0591226 -276.823334 -91.0591226"></polygon>
                        <polygon id="Fill-38" fill="#92C5FF" mask="url(#mask-14)" points="-2.25059621 2.67820949 9.90262332 2.67820949 9.90262332 -1.91300678 -2.25059621 -1.91300678"></polygon>
                    </g>
                    <path d="M14.0887323,22.1908786 L7.33694364,22.1908786 C7.0880277,22.1908786 6.8868244,22.3619014 6.8868244,22.57348 C6.8868244,22.7850585 7.0880277,22.9560813 7.33694364,22.9560813 L14.0887323,22.9560813 C14.3376482,22.9560813 14.5388515,22.7850585 14.5388515,22.57348 C14.5388515,22.3619014 14.3376482,22.1908786 14.0887323,22.1908786" id="Fill-40" fill="#92C5FF"></path>
                    <g id="Group-45" transform="translate(6.886824, 22.190879)">
                        <mask id="mask-16" fill="white">
                            <use xlink:href="#path-15"></use>
                        </mask>
                        <g id="Clip-43"></g>
                        <polygon id="Fill-42" fill="#92C5FF" mask="url(#mask-16)" points="-276.823334 3.06081084 357.394678 3.06081084 357.394678 -93.3547307 -276.823334 -93.3547307"></polygon>
                        <polygon id="Fill-44" fill="#92C5FF" mask="url(#mask-16)" points="-2.25059621 2.67820949 9.90262332 2.67820949 9.90262332 -1.91300678 -2.25059621 -1.91300678"></polygon>
                    </g>
                    <path d="M16.0692569,22.9560813 L22.1908786,22.9560813 L22.1908786,16.8344596 L16.0692569,16.8344596 L16.0692569,22.9560813 Z M16.9437743,22.0815639 L21.3163612,22.0815639 L21.3163612,17.708977 L16.9437743,17.708977 L16.9437743,22.0815639 Z" id="Fill-46" fill="#92C5FF"></path>
                    <g id="Group-51" transform="translate(16.069257, 16.834460)">
                        <mask id="mask-18" fill="white">
                            <use xlink:href="#path-17"></use>
                        </mask>
                        <g id="Clip-49"></g>
                        <polygon id="Fill-48" fill="#92C5FF" mask="url(#mask-18)" points="-278.096528 8.74517384 338.000969 8.74517384 338.000969 -101.444017 -278.096528 -101.444017"></polygon>
                        <polygon id="Fill-50" fill="#92C5FF" mask="url(#mask-18)" points="-2.18629346 8.30791515 8.30791515 8.30791515 8.30791515 -2.18629346 -2.18629346 -2.18629346"></polygon>
                    </g>
                    <path d="M24.4864868,5.47119938 C24.4864868,5.46404474 24.4826871,5.45815268 24.4822649,5.45099803 L24.4822649,0 L4.22180806,0 L4.22180806,12.6258447 L0,12.6258447 L0,22.7265205 C0,24.1191512 1.13608855,25.2516895 2.53308484,25.2516895 L21.9534019,25.2516895 C23.3478651,25.2516895 24.4822649,24.1204138 24.4822649,22.7307291 L24.4822649,5.49140073 C24.4826871,5.48424609 24.4864868,5.47835403 24.4864868,5.47119938 L24.4864868,5.47119938 Z M5.06616967,5.05033789 L23.6379033,5.05033789 L23.6379033,0.841722982 L5.06616967,0.841722982 L5.06616967,5.05033789 Z M0.844361612,22.7265205 L0.844361612,13.4675677 L4.22180806,13.4675677 L4.22180806,22.7265205 C4.22180806,23.654941 3.46441569,24.4099665 2.53308484,24.4099665 C1.60175398,24.4099665 0.844361612,23.654941 0.844361612,22.7265205 L0.844361612,22.7265205 Z M21.9534019,24.4099665 L4.41981086,24.4099665 C4.42656575,24.402391 4.43120974,24.3935529 4.43754245,24.3859774 C4.52366734,24.2879166 4.60219297,24.1831221 4.67227498,24.0724356 C4.68367386,24.0547594 4.69422838,24.0370832 4.70520508,24.0185653 C4.77359837,23.9049327 4.83397023,23.7862497 4.88378756,23.6616747 C4.89054246,23.6444194 4.89645299,23.6271641 4.9027857,23.6099088 C4.95133649,23.4811252 4.99102149,23.3481329 5.01804106,23.2105112 C5.02057415,23.1978854 5.02141851,23.1848387 5.02395159,23.1726337 C5.0501268,23.0278573 5.06616967,22.8788724 5.06616967,22.7265205 L5.06616967,12.6258447 L5.06616967,5.89206087 L23.6379033,5.89206087 L23.6379033,22.7307291 C23.6379033,23.6566244 22.8821997,24.4099665 21.9534019,24.4099665 L21.9534019,24.4099665 Z" id="Fill-52" fill="#92C5FF"></path>
                    <g id="Group-57">
                        <mask id="mask-20" fill="white">
                            <use xlink:href="#path-19"></use>
                        </mask>
                        <g id="Clip-55"></g>
                        <polygon id="Fill-54" fill="#92C5FF" mask="url(#mask-20)" points="-252.464122 25.2516895 342.388634 25.2516895 342.388634 -80.8054063 -252.464122 -80.8054063"></polygon>
                        <polygon id="Fill-56" fill="#92C5FF" mask="url(#mask-20)" points="-2.11090403 27.3559969 26.5973908 27.3559969 26.5973908 -2.10430746 -2.11090403 -2.10430746"></polygon>
                    </g>
                    <path d="M9.94763524,4.59121627 L19.8952705,4.59121627 L19.8952705,2.29560813 L9.94763524,2.29560813 L9.94763524,4.59121627 Z M10.7766048,3.82601355 L19.0663009,3.82601355 L19.0663009,3.06081084 L10.7766048,3.06081084 L10.7766048,3.82601355 Z" id="Fill-58" fill="#92C5FF"></path>
                    <g id="Group-63" transform="translate(9.947635, 2.295608)">
                        <mask id="mask-22" fill="white">
                            <use xlink:href="#path-21"></use>
                        </mask>
                        <g id="Clip-61"></g>
                        <polygon id="Fill-60" fill="#92C5FF" mask="url(#mask-22)" points="-256.980577 21.4256759 327.028509 21.4256759 327.028509 -74.9898657 -256.980577 -74.9898657"></polygon>
                        <polygon id="Fill-62" fill="#92C5FF" mask="url(#mask-22)" points="-2.07242401 4.20861491 12.0200593 4.20861491 12.0200593 -1.91300678 -2.07242401 -1.91300678"></polygon>
                    </g>
                </g>
            </g>
        </g>
    </g>
</svg>