<?xml version="1.0" encoding="UTF-8"?>
<svg width="168px" height="40px" viewBox="0 0 168 40" version="1.1" xmlns="http://www.w3.org/2000/svg" xmlns:xlink="http://www.w3.org/1999/xlink">
    <!-- Generator: Sketch 41 (35326) - http://www.bohemiancoding.com/sketch -->
    <title>Icons/Logos/Other/healthLogoOUT</title>
    <desc>Created with Sketch.</desc>
    <defs></defs>
    <g id="Symbols" stroke="none" stroke-width="1" fill="none" fill-rule="evenodd">
        <g id="Icons/Logos/Other/healthLogoOUT">
            <path d="M104.999994,29.0000013 C98.3694259,33.3083389 88.9425481,36 78.4837955,36 C68.0420684,36 58.6288592,33.3170951 52,29.0210287 C60.1908529,30.8163934 69.1143836,31.8026224 78.4521322,31.8026224 C87.8262716,31.8026224 96.7829582,30.8086914 105,29.0000001 Z" id="swash" fill="#3CF0C8"></path>
            <path d="M1.1475,14.236 C1.1475,18.131 3.9595,21.228 7.9115,21.228 C11.1985,21.228 13.0225,19.157 13.0225,19.157 L12.2625,18.226 C12.2625,18.226 10.6285,20.012 7.9305,20.012 C4.7575,20.012 2.5155,17.409 2.5155,14.217 C2.5155,11.063 4.7575,8.631 7.8925,8.631 C10.4005,8.631 11.9585,10.113 11.9585,10.113 L12.6615,9.144 C12.6615,9.144 11.0465,7.415 7.8545,7.415 C4.0355,7.415 1.1475,10.36 1.1475,14.236 Z M14.9605,14.236 C14.9605,18.15 17.9815,21.228 21.7625,21.228 C25.5435,21.228 28.5645,18.15 28.5645,14.236 C28.5645,10.398 25.5435,7.415 21.7625,7.415 C17.9815,7.415 14.9605,10.398 14.9605,14.236 Z M16.3285,14.236 C16.3285,11.044 18.7415,8.631 21.7625,8.631 C24.7645,8.631 27.1965,11.044 27.1965,14.236 C27.1965,17.504 24.7645,20.012 21.7625,20.012 C18.7415,20.012 16.3285,17.504 16.3285,14.236 Z M31.5285,21 L32.8395,21 L32.8395,11.386 C32.8395,10.683 32.7255,9.581 32.7255,9.581 L32.7635,9.581 C32.7635,9.581 33.4095,10.721 33.8655,11.386 L40.6865,21 L41.9595,21 L41.9595,7.643 L40.6485,7.643 L40.6485,17.257 C40.6485,17.96 40.7625,19.062 40.7625,19.062 L40.7245,19.062 C40.7245,19.062 40.0785,17.922 39.6225,17.257 L32.8015,7.643 L31.5285,7.643 L31.5285,21 Z" id="Con" fill="#188078"></path>
            <path d="M45.91,25 L53.62,25 C57.55,25 60.97,23.08 60.97,18.82 C60.97,16.66 59.86,14.5 57.52,13.81 L57.52,13.75 C59.14,12.88 60.1,11.17 60.1,9.19 C60.1,5.68 57.37,3.7 53.53,3.7 L45.91,3.7 L45.91,25 Z M49.78,12.4 L49.78,7.03 L53.47,7.03 C55.27,7.03 56.17,8.14 56.17,9.67 C56.17,11.2 55.21,12.4 53.53,12.4 L49.78,12.4 Z M49.78,21.67 L49.78,15.52 L53.92,15.52 C55.87,15.52 57.01,16.81 57.01,18.58 C57.01,20.38 55.9,21.67 53.92,21.67 L49.78,21.67 Z M65.17,25 L69.04,25 L69.04,3.7 L65.17,3.7 L65.17,25 Z M74.44,25 L87.67,25 L87.67,21.67 L78.31,21.67 L78.31,15.94 L85.48,15.94 L85.48,12.61 L78.31,12.61 L78.31,7.03 L87.19,7.03 L87.19,3.7 L74.44,3.7 L74.44,25 Z M91.69,25 L95.56,25 L95.56,12.73 C95.56,11.47 95.35,9.43 95.35,9.43 L95.41,9.43 C95.41,9.43 96.37,11.5 97.18,12.73 L105.25,25 L109.09,25 L109.09,3.7 L105.25,3.7 L105.25,16 C105.25,17.26 105.46,19.3 105.46,19.3 L105.4,19.3 C105.4,19.3 104.44,17.23 103.63,16 L95.56,3.7 L91.69,3.7 L91.69,25 Z" id="bien" fill="#3CF0C8"></path>
            <path d="M112.9985,21 L120.8645,21 L120.8645,19.822 L114.3095,19.822 L114.3095,14.863 L119.3825,14.863 L119.3825,13.685 L114.3095,13.685 L114.3095,8.821 L120.5225,8.821 L120.5225,7.643 L112.9985,7.643 L112.9985,21 Z M122.8595,19.518 C122.8595,19.518 124.3605,21.228 127.0965,21.228 C129.6045,21.228 131.1435,19.613 131.1435,17.618 C131.1435,13.229 124.4745,14.141 124.4745,10.968 C124.4745,9.79 125.5765,8.669 127.2865,8.669 C129.0345,8.669 130.2125,9.809 130.2125,9.809 L130.8585,8.707 C130.8585,8.707 129.6045,7.415 127.2865,7.415 C124.8165,7.415 123.1255,9.087 123.1255,11.006 C123.1255,15.148 129.7945,14.293 129.7945,17.656 C129.7945,19.1 128.5975,19.974 127.1345,19.974 C125.0255,19.974 123.6385,18.511 123.6385,18.511 L122.8595,19.518 Z M137.0715,21 L138.3825,21 L138.3825,8.821 L143.1705,8.821 L143.1705,7.643 L132.2645,7.643 L132.2645,8.821 L137.0715,8.821 L137.0715,21 Z M153.3735,21 L154.7605,21 L149.8585,7.643 L148.4525,7.643 L143.5505,21 L144.9375,21 L146.4575,16.744 L151.8345,16.744 L153.3735,21 Z M149.1745,9.03 C149.1745,9.03 149.4595,10.132 149.6875,10.759 L151.4355,15.604 L146.8375,15.604 L148.6235,10.759 C148.8515,10.132 149.1365,9.03 149.1365,9.03 L149.1745,9.03 Z M156.9455,21 L158.2565,21 L158.2565,15.376 L161.6195,15.376 L164.6405,21 L166.1415,21 L163.2345,15.623 C163.0255,15.262 162.8925,15.091 162.8925,15.091 L162.8925,15.053 C164.3935,14.635 165.4195,13.248 165.4195,11.443 C165.4195,9.828 164.6595,8.555 163.4055,8.004 C162.8735,7.776 162.2655,7.643 160.8975,7.643 L156.9455,7.643 L156.9455,21 Z M158.2565,14.198 L158.2565,8.821 L160.9545,8.821 C161.9805,8.821 162.4555,8.935 162.8545,9.144 C163.6335,9.562 164.0705,10.379 164.0705,11.481 C164.0705,13.153 163.0445,14.198 161.4295,14.198 L158.2565,14.198 Z" id="estar" fill="#188078"></path>
        </g>
    </g>
</svg>