<?xml version="1.0" encoding="UTF-8"?>
<svg width="41px" height="41px" viewBox="0 0 41 41" version="1.1" xmlns="http://www.w3.org/2000/svg" xmlns:xlink="http://www.w3.org/1999/xlink">
    <!-- Generator: sketchtool 57.1 (101010) - https://sketch.com -->
    <title>6A0914E0-5242-4DB8-863C-07AE01CD6B5B</title>
    <desc>Created with sketchtool.</desc>
    <g id="Home" stroke="none" stroke-width="1" fill="none" fill-rule="evenodd">
        <g id="BetterAdsTN" transform="translate(-640.000000, -627.000000)">
            <g id="Group-124" transform="translate(640.000000, 626.000000)">
                <rect id="Rectangle" x="0" y="0" width="42" height="42"></rect>
                <g id="Group-123" transform="translate(1.000000, 2.000000)">
                    <circle id="Oval" stroke="#008CF7" stroke-width="1.76" cx="19.344" cy="19.344" r="19.344"></circle>
                    <g id="download-arrow-copy-4" transform="translate(12.000000, 10.000000)" fill="#138BEF" fill-rule="nonzero">
                        <path d="M13.0693337,11.6298521 C13.4939794,11.24026 14.1625095,11.24026 14.5871553,11.6298521 C14.9974549,12.0194443 14.9974549,12.6327887 14.5871553,13.0223808 L8.22703317,18.8583659 C8.03001284,19.0391226 7.75647977,19.15056 7.45329801,19.15056 C7.15011625,19.15056 6.87658317,19.0391226 6.67860644,18.8583659 L0.318484311,13.0223808 C-0.106161437,12.6327887 -0.106161437,12.0194443 0.318484311,11.6298521 C0.743130059,11.24026 1.41166019,11.24026 1.83630594,11.6298521 L6.37542468,15.8083156 L6.37542468,0.974857831 C6.37446827,0.431710219 6.86032421,0 7.4523416,0 C8.04435898,0 8.51491238,0.431710219 8.51491238,0.974857831 L8.51491238,15.8074382 L13.0693337,11.6298521 Z" id="Path"></path>
                    </g>
                </g>
            </g>
        </g>
    </g>
</svg>